<?xml version="1.0" encoding="UTF-8"?>
<svg width="24" height="24" viewBox="0 0 24 24" xmlns="http://www.w3.org/2000/svg">
<path d="m20.875 2h-17.781c-0.625 0-1.0938 0.5-1.0938 1.0938v17.781c0 0.625 0.5 1.0937 1.0938 1.0937h9.5938v-7.7499h-2.625v-3.0313h2.5937v-2.2188c0-2.5937 1.5625-4 3.875-4 1.0938 0 2.0625 0.09375 2.3438 0.125v2.6875h-1.5938c-1.25 0-1.5 0.59375-1.5 1.4688v1.9375h3l-0.375 3.0625h-2.5937v7.75h5.0937c0.625 0 1.0938-0.5 1.0938-1.0938v-17.781c0-0.65625-0.5-1.125-1.125-1.125z" fill="currentColor"/>
</svg>
