<?xml version="1.0" encoding="UTF-8"?>
<svg width="24" height="24" viewBox="0 0 24 24" xmlns="http://www.w3.org/2000/svg">
<g clip-rule="evenodd" fill="currentColor" fill-rule="evenodd">
<path d="m11.997 2.0063c-2.715 0-3.0555 0.01151-4.1217 0.06016-1.064 0.04853-1.7908 0.21754-2.4266 0.46468-0.65738 0.25543-1.2149 0.59726-1.7707 1.153-0.55576 0.5558-0.89758 1.1133-1.153 1.7707-0.24714 0.63587-0.41615 1.3626-0.46468 2.4266-0.04865 1.0663-0.06016 1.4067-0.06016 4.1217 0 2.7149 0.01151 3.0554 0.06016 4.1217 0.04853 1.064 0.21754 1.7907 0.46468 2.4266 0.25544 0.6574 0.59726 1.2149 1.153 1.7707 0.55579 0.5557 1.1133 0.8975 1.7707 1.153 0.63587 0.2471 1.3626 0.4161 2.4266 0.4646 1.0663 0.0487 1.4067 0.0602 4.1217 0.0602 2.7149 0 3.0554-0.0115 4.1216-0.0602 1.0641-0.0485 1.7908-0.2175 2.4267-0.4646 0.6573-0.2555 1.2148-0.5973 1.7706-1.153 0.5558-0.5558 0.8976-1.1133 1.1531-1.7707 0.2471-0.6359 0.4161-1.3626 0.4646-2.4266 0.0487-1.0663 0.0602-1.4068 0.0602-4.1217 0-2.715-0.0115-3.0554-0.0602-4.1217-0.0485-1.064-0.2175-1.7908-0.4646-2.4266-0.2555-0.65738-0.5973-1.2149-1.1531-1.7707-0.5558-0.55575-1.1133-0.89758-1.7706-1.153-0.6359-0.24714-1.3626-0.41615-2.4267-0.46468-1.0662-0.04865-1.4067-0.06016-4.1216-0.06016zm0 1.8012c2.6692 0 2.9854 0.0102 4.0395 0.05829 0.9747 0.04445 1.504 0.2073 1.8563 0.34421 0.4666 0.18135 0.7996 0.39797 1.1494 0.74781 0.3499 0.34981 0.5665 0.68282 0.7479 1.1494 0.1369 0.35226 0.2997 0.88159 0.3442 1.8563 0.0481 1.0541 0.0583 1.3703 0.0583 4.0396 0 2.6692-0.0102 2.9854-0.0583 4.0395-0.0445 0.9747-0.2073 1.5041-0.3442 1.8563-0.1814 0.4666-0.398 0.7997-0.7479 1.1495-0.3498 0.3498-0.6828 0.5664-1.1494 0.7478-0.3523 0.1369-0.8816 0.2997-1.8563 0.3442-1.0539 0.0481-1.3701 0.0583-4.0395 0.0583-2.6695 0-2.9856-0.0102-4.0396-0.0583-0.97468-0.0445-1.504-0.2073-1.8563-0.3442-0.46662-0.1814-0.79964-0.398-1.1494-0.7478s-0.56647-0.6829-0.74782-1.1495c-0.1369-0.3522-0.29976-0.8816-0.34421-1.8563-0.04809-1.0541-0.05829-1.3703-0.05829-4.0395 0-2.6693 0.0102-2.9855 0.05829-4.0396 0.04445-0.97468 0.20731-1.504 0.34421-1.8563 0.18135-0.46663 0.39798-0.79964 0.74782-1.1494 0.3498-0.34984 0.68282-0.56646 1.1494-0.74781 0.35226-0.13691 0.88159-0.29976 1.8563-0.34421 1.0541-0.04809 1.3703-0.05829 4.0396-0.05829z"/>
<path d="m11.997 15.336c-1.8404 0-3.3323-1.492-3.3323-3.3323 0-1.8404 1.4919-3.3323 3.3323-3.3323s3.3323 1.4919 3.3323 3.3323c0 1.8403-1.4919 3.3323-3.3323 3.3323zm0-8.4658c-2.8352 0-5.1335 2.2983-5.1335 5.1335 0 2.8352 2.2983 5.1335 5.1335 5.1335 2.8352 0 5.1335-2.2983 5.1335-5.1335 0-2.8352-2.2983-5.1335-5.1335-5.1335z"/>
<path d="m18.533 6.6668c0 0.66254-0.5371 1.1996-1.1997 1.1996-0.6625 0-1.1996-0.53706-1.1996-1.1996s0.5371-1.1996 1.1996-1.1996c0.6626 0 1.1997 0.53711 1.1997 1.1996z"/>
</g>
</svg>
