<?xml version="1.0" encoding="UTF-8"?>
<svg width="24" height="24" viewBox="0 0 24 24" xmlns="http://www.w3.org/2000/svg">
<path d="m8.2177 20.298c7.5803 0 11.715-6.2647 11.715-11.715v-0.5325c0.8035-0.5892 1.5023-1.3092 2.0673-2.13-0.7433 0.34223-1.5363 0.56425-2.3493 0.65779 0.8632-0.51627 1.509-1.3291 1.8168-2.2866-0.8077 0.47053-1.6853 0.80891-2.5998 1.0024-1.5624-1.6487-4.1608-1.7326-5.8262-0.18794-1.0714 0.99651-1.5258 2.4912-1.1903 3.9154-3.3053-0.16342-6.3855-1.7234-8.473-4.2913-1.0973 1.8781-0.53304 4.2864 1.2843 5.4816-0.65588-0.0256-1.2978-0.1968-1.8794-0.50114v0.06264c-5.2e-4 1.9564 1.3732 3.6441 3.289 4.0407-0.6032 0.1615-1.2353 0.1829-1.8481 0.0627 0.54079 1.6775 2.0904 2.824 3.8528 2.8504-1.453 1.1482-3.2539 1.7669-5.1057 1.7541-0.31324 0-0.6578-0.0313-0.97103-0.0626 1.8443 1.2331 4.0148 1.8875 6.2334 1.8794" fill="currentColor"/>
</svg>
