<?xml version="1.0" encoding="UTF-8"?>
<svg width="24" height="24" viewBox="0 0 24 24" xmlns="http://www.w3.org/2000/svg">
<path d="m21.377 4.1048c1.0327 0.27778 1.8459 1.0962 2.1219 2.1356 0.5015 1.8837 0.5015 5.8141 0.5015 5.8141s0 3.9303-0.5015 5.8143c-0.276 1.0392-1.0892 1.8577-2.1219 2.1356-1.8716 0.5047-9.3766 0.5047-9.3766 0.5047s-7.505 0-9.3766-0.5047c-1.0325-0.2779-1.8458-1.0964-2.1218-2.1356-0.50154-1.884-0.50154-5.8143-0.50154-5.8143s0-3.9304 0.50154-5.8141c0.276-1.0394 1.0893-1.8578 2.1218-2.1356 1.8716-0.50481 9.3766-0.50481 9.3766-0.50481s7.505 0 9.3766 0.50481zm-5.5584 7.9498-6.2727 3.5684v-7.137l6.2727 3.5686z" clip-rule="evenodd" fill="currentColor" fill-rule="evenodd"/>
</svg>
